<svg width="64" height="64" viewBox="0 0 64 64" fill="none" xmlns="http://www.w3.org/2000/svg">
<path d="M31.9999 35.1347C33.7311 35.1347 35.1346 33.7312 35.1346 32C35.1346 30.2688 33.7311 28.8654 31.9999 28.8654C30.2687 28.8654 28.8652 30.2688 28.8652 32C28.8652 33.7312 30.2687 35.1347 31.9999 35.1347Z" fill="#61DAFB"/>
<path fill-rule="evenodd" clip-rule="evenodd" d="M17.2676 30.3485C16.5577 30.9893 16.3228 31.5493 16.3228 32C16.3228 32.4507 16.5577 33.0107 17.2676 33.6515C17.9773 34.2922 19.0685 34.9216 20.5141 35.4736C23.3975 36.5745 27.4581 37.2794 32.0001 37.2794C36.5421 37.2794 40.6027 36.5745 43.4861 35.4736C44.9317 34.9216 46.0229 34.2922 46.7326 33.6515C47.4425 33.0107 47.6774 32.4507 47.6774 32C47.6774 31.5493 47.4425 30.9893 46.7326 30.3485C46.0229 29.7078 44.9317 29.0785 43.4861 28.5265C40.6027 27.4256 36.5421 26.7207 32.0001 26.7207C27.4581 26.7207 23.3975 27.4256 20.5141 28.5265C19.0685 29.0785 17.9773 29.7078 17.2676 30.3485ZM19.6988 26.3911C22.9031 25.1677 27.2526 24.4349 32.0001 24.4349C36.7476 24.4349 41.0971 25.1677 44.3014 26.3911C45.8996 27.0014 47.2717 27.7559 48.2642 28.6519C49.2567 29.5478 49.9631 30.6773 49.9631 32C49.9631 33.3228 49.2567 34.4523 48.2642 35.3482C47.2717 36.2442 45.8996 36.9987 44.3014 37.6089C41.0971 38.8324 36.7476 39.5651 32.0001 39.5651C27.2526 39.5651 22.9031 38.8324 19.6988 37.6089C18.1006 36.9987 16.7285 36.2442 15.736 35.3482C14.7435 34.4523 14.0371 33.3228 14.0371 32C14.0371 30.6773 14.7435 29.5478 15.736 28.6519C16.7285 27.7559 18.1006 27.0014 19.6988 26.3911Z" fill="#61DAFB"/>
<path fill-rule="evenodd" clip-rule="evenodd" d="M26.0642 18.4155C25.1543 18.1211 24.5519 18.1977 24.1616 18.423C23.7713 18.6484 23.4038 19.1318 23.2038 20.067C23.0038 21.002 23.0043 22.2616 23.2491 23.7896C23.7374 26.8372 25.1572 30.7062 27.4282 34.6396C29.6992 38.5731 32.3399 41.7372 34.7351 43.6839C35.9359 44.6598 37.0265 45.2901 37.9363 45.5844C38.8462 45.8788 39.4486 45.8022 39.8389 45.5769C40.2292 45.3515 40.5967 44.8681 40.7967 43.9329C40.9967 42.998 40.9962 41.7383 40.7514 40.2103C40.2631 37.1628 38.8433 33.2937 36.5723 29.3603C34.3013 25.4268 31.6606 22.2627 29.2654 20.3161C28.0646 19.3401 26.9739 18.7098 26.0642 18.4155ZM30.707 18.5423C33.3687 20.7056 36.178 24.1059 38.5518 28.2174C40.9256 32.3289 42.4657 36.462 43.0083 39.8487C43.279 41.538 43.3116 43.1035 43.0319 44.411C42.7523 45.7184 42.1273 46.895 40.9817 47.5564C39.8362 48.2177 38.5048 48.1707 37.2327 47.7592C35.9605 47.3476 34.621 46.5366 33.2935 45.4576C30.6318 43.2944 27.8224 39.894 25.4487 35.7825C23.0749 31.671 21.5348 27.5379 20.9922 24.1512C20.7215 22.462 20.6889 20.8965 20.9686 19.5889C21.2482 18.2815 21.8732 17.1049 23.0188 16.4436C24.1643 15.7822 25.4957 15.8292 26.7678 16.2407C28.04 16.6523 29.3795 17.4633 30.707 18.5423Z" fill="#61DAFB"/>
<path fill-rule="evenodd" clip-rule="evenodd" d="M40.7966 20.0669C40.5966 19.1318 40.2291 18.6484 39.8388 18.423C39.4485 18.1977 38.8461 18.1211 37.9362 18.4155C37.0265 18.7098 35.9358 19.3401 34.735 20.316C32.3398 22.2627 29.6991 25.4268 27.4281 29.3602C25.1571 33.2937 23.7373 37.1627 23.249 40.2103C23.0042 41.7383 23.0037 42.9979 23.2037 43.9329C23.4037 44.8681 23.7712 45.3515 24.1615 45.5769C24.5518 45.8022 25.1542 45.8788 26.0641 45.5844C26.9738 45.2901 28.0645 44.6598 29.2653 43.6838C31.6605 41.7372 34.3012 38.5731 36.5722 34.6396C38.8432 30.7062 40.263 26.8371 40.7513 23.7896C40.9961 22.2616 40.9966 21.0019 40.7966 20.0669ZM43.0082 24.1511C42.4656 27.5379 40.9255 31.671 38.5517 35.7825C36.1779 39.894 33.3686 43.2943 30.7069 45.4576C29.3794 46.5366 28.0399 47.3476 26.7677 47.7592C25.4956 48.1707 24.1642 48.2177 23.0187 47.5563C21.8731 46.895 21.2481 45.7184 20.9685 44.411C20.6888 43.1034 20.7214 41.5379 20.9921 39.8487C21.5347 36.462 23.0748 32.3289 25.4486 28.2174C27.8224 24.1059 30.6317 20.7055 33.2934 18.5423C34.6209 17.4633 35.9604 16.6523 37.2326 16.2407C38.5047 15.8292 39.8361 15.7821 40.9816 16.4435C42.1272 17.1049 42.7522 18.2814 43.0318 19.5889C43.3115 20.8964 43.2789 22.4619 43.0082 24.1511Z" fill="#61DAFB"/>
</svg>
